<svg xmlns="http://www.w3.org/2000/svg" width="550" height="550"><path d="M234.575 63.522c-2.267 3.164-4.687 5.478-5.73 5.478-3.8 0-9.736 3.281-12.774 7.061L212.906 80h-17.485c-20.121 0-22.839-.691-27.133-6.895l-2.788-4.029-48.602-.038L68.296 69l-3.297 2.25c-1.812 1.237-4.129 3.818-5.147 5.734C58.113 80.255 58 83.876 58 136.111v55.643l5.467 15.153 5.466 15.154-5.466 7.619C58.141 237.102 58 237.472 58 244.028v6.729L63.5 255l5.5 4.243V275.568L63.5 281l-5.5 5.432v43.324l5.5 3.333 5.5 3.334v46.783l-4.355 4.844c-2.533 2.817-4.85 6.645-5.536 9.147-.827 3.014-1.095 14.274-.895 37.582l.286 33.278 8.5 3.06a2640.587 2640.587 0 0117 6.201l8.5 3.142 31.576.353c38.967.436 46.037-.439 55.325-6.848l5.997-4.139 14.551 5.516 14.551 5.515 5.529-5.429c3.041-2.985 5.803-5.428 6.137-5.428.335 0 4.335 4.613 8.89 10.25 4.555 5.637 8.686 10.7 9.18 11.25.585.651 1.315.437 2.092-.614.657-.888 2.878-3.478 4.936-5.756l3.742-4.142 15.544 5.641 15.545 5.642 4.611-3.312c2.537-1.821 7.128-4.346 10.203-5.611 5.442-2.239 6.472-2.301 38.562-2.324l32.971-.024 5.725-5.665 5.725-5.665 3.997 3.611c4.496 4.062 8.512 5.393 20.395 6.759 14.23 1.636 32.516.908 40.915-1.629 2.005-.606 1.448-2.861-1.522-6.161l-2.026-2.25h5.768c10.449 0 26.143 3.856 39.331 9.664.995.438 1.25-17.426 1.25-87.466v-88.017l-10.713 3.363c-5.892 1.85-10.927 3.149-11.19 2.887-.262-.263 1.582-2.604 4.098-5.204 2.515-2.6 5.076-5.71 5.689-6.911 1.353-2.648 1.436-24.079.157-40.582-.896-11.572-.987-11.892-5.539-19.39-4.262-7.02-4.534-7.853-3.43-10.518.66-1.592 3.163-4.623 5.564-6.736 3.807-3.352 4.364-4.361 4.364-7.91 0-3.865.274-4.232 5.5-7.358l5.5-3.289v-50.276l-5.552-23.297-5.552-23.297 5.552-5.61L492 94.442l-.013-7.471-.012-7.471-5.658-4.963-5.657-4.962-19.58-3.204-19.58-3.205-4.163 2.917c-2.29 1.604-4.551 2.917-5.023 2.917-.473 0-1.678-1.521-2.679-3.379-1.763-3.275-2.056-3.399-9.477-4.02-22.9-1.917-51.012-3.574-60.837-3.587-13.103-.016-13.549.238-16.034 9.176-1.947 7.004-2.354 7.244-13.992 8.238l-8.204.702-.856-3.315-.856-3.315-10.276-.5-10.277-.5 2.682-2.5c1.475-1.375 3.326-3.737 4.113-5.25l1.43-2.75-34.275.022-34.276.021-3.925 5.479M125.5 127.87c-2.2 1.004-7.106 3.732-10.903 6.061-3.797 2.329-7.995 4.65-9.329 5.157-2.416.919-2.404.947 2.903 6.782 2.931 3.222 63.356 67.12 134.277 141.994L371.396 424l22.552-.004 22.552-.004 7.898-22.746a5880.142 5880.142 0 0115.233-43.235c6.918-19.324 7.237-20.581 5.602-22.101-.953-.886-55.508-38.062-121.233-82.614-65.725-44.551-122.235-82.9-125.578-85.221-3.691-2.563-7.649-4.43-10.08-4.756-3.436-.461-4.324-1.124-6.267-4.678-1.718-3.144-5.77-6.669-16.829-14.641-25.625-18.473-24.824-18.003-30.597-17.978-2.832.012-6.949.844-9.149 1.848m215.155 14.591l-31.845 16.266 12.345 8.076c47.869 31.314 78.327 51.049 78.509 50.867.117-.117 2.935-15.053 6.262-33.192 3.327-18.138 6.276-33.939 6.552-35.115.444-1.885-1.779-3.385-18.887-12.75-10.664-5.837-19.772-10.569-20.24-10.515-.468.054-15.181 7.417-32.696 16.363M121.744 347.503C111.435 368.13 103 385.21 103 385.459c0 .249 9.935 9.082 22.077 19.63l22.077 19.178 40.173-9.304c22.095-5.118 40.519-9.597 40.943-9.954.758-.639-85.746-95.009-87.091-95.009-.38 0-9.126 16.877-19.435 37.503" fill="undefined" fill-rule="evenodd"/></svg>